<?xml version="1.0" encoding="UTF-8"?>
<svg xmlns="http://www.w3.org/2000/svg" viewBox="0 0 678.5 351.06">
  <defs>
    <style>
      .cls-1, .cls-2 {
        fill: none;
      }

      .cls-1, .cls-2, .cls-3 {
        stroke: #efeeee;
        stroke-miterlimit: 10;
      }

      .cls-1, .cls-3 {
        stroke-width: 3.56px;
      }

      .cls-2 {
        stroke-width: 3.77px;
      }

      .cls-3, .cls-4 {
        fill: #6d8b52;
      }

      .cls-4 {
        font-family: Avenir-Black, Avenir;
        font-size: 139.81px;
        font-weight: 800;
      }

      .cls-5 {
        letter-spacing: .1em;
      }

      .cls-6 {
        letter-spacing: 0em;
      }
    </style>
  </defs>
  <g id="Layer_1" data-name="Layer 1">
    <text class="cls-4" transform="translate(0 119.4)"><tspan class="cls-5" x="0" y="0">M</tspan><tspan class="cls-6" x="145.96" y="0">A</tspan><tspan class="cls-5" x="250.68" y="0">TCHA</tspan><tspan class="cls-5"><tspan x="0" y="167.77">MUSE</tspan></tspan></text>
  </g>
  <g id="Layer_2" data-name="Layer 2">
    <g>
      <path class="cls-3" d="M569.91,143.29s-82.3,66.58,0,153.56c0,0,84.96-71.84,0-153.56Z"/>
      <path class="cls-3" d="M498.28,198.45s-8.53,93.79,72,96.64c0,0,10.42-79.58-72-96.64Z"/>
      <line class="cls-1" x1="498.28" y1="198.45" x2="570.29" y2="295.09"/>
      <polyline class="cls-1" points="502.11 239.02 540.04 254.5 555.7 234.07"/>
      <line class="cls-2" x1="569.75" y1="143.29" x2="569.75" y2="315.31"/>
      <polyline class="cls-1" points="539.26 187.18 570.02 220.07 601.32 187.18"/>
      <path class="cls-3" d="M642.72,198.45s8.53,93.79-72,96.64c0,0-10.42-79.58,72-96.64Z"/>
      <line class="cls-1" x1="642.72" y1="198.45" x2="570.71" y2="295.09"/>
      <polyline class="cls-1" points="638.89 239.02 600.95 254.5 585.3 234.07"/>
    </g>
  </g>
</svg>