<?xml version="1.0" encoding="UTF-8"?>
<svg id="Layer_1" xmlns="http://www.w3.org/2000/svg" version="1.1" viewBox="0 0 12205.61 3584.56">
  <!-- Generator: Adobe Illustrator 29.7.1, SVG Export Plug-In . SVG Version: 2.1.1 Build 8)  -->
  <defs>
    <style>
      .st0 {
        fill: #5f211b;
      }
    </style>
  </defs>
  <path class="st0" d="M710.43,1728.51c11.37,0,31.02.31,58.84.92,27.73.61,59.14,1.22,94.35,1.84,35.11.69,71.01,1.3,107.82,1.91,36.8.61,69.02.92,96.84.92,50.67,0,109.91-.92,177.73-2.83,67.72-1.84,148.21-2.75,241.36-2.75,62.14,0,114.8,1.53,158.18,4.67,43.19,3.14,79.59,7.88,109.01,14.08,29.42,6.27,53.96,14.16,73.51,23.57,19.65,9.34,37.6,20.36,53.96,32.9,29.42,21.27,49.37,46.37,60.04,75.22,10.67,28.85,15.16,59.53,13.46,92.13,0,52.65-14.26,98.71-42.89,138.2-28.62,39.49-68.22,72.77-118.89,99.71-50.67,26.94-111.11,47.67-181.32,62.06-70.31,14.39-147.91,23.49-232.89,27.24l-2.49,13.16c138.93,15.08,242.26,42.32,310.08,81.8,67.82,39.49,93.55,100.63,77.2,183.35,0,36.42-9.77,83.41-29.32,141.11-4.99,18.75-8.28,36.96-9.87,54.48-1.6,17.6.4,32.9,6.18,46.07,5.69,13.16,15.46,23.57,29.42,31.07,13.86,7.5,33.81,11.25,60.04,11.25h36.7c11.47,0,23.74-1.22,36.8-3.75l-34.31,63.97c-22.94,3.75-53.96,6.89-93.15,9.41-39.2,2.45-89.86,3.75-152,3.75-73.51,0-133.55-6.58-180.12-19.74-46.58-13.16-82.08-31.99-106.62-56.47-24.54-24.41-38.8-53.57-42.89-87.39-4.09-33.9.4-70.86,13.46-110.96,8.18-23.8,17.15-51.12,26.93-81.8,9.87-30.76,17.95-58.62,24.54-83.72,14.76-51.42,12.27-89-7.38-112.87-19.55-23.8-70.21-36.35-151.9-37.57-34.31,0-62.14,1.84-83.38,5.66-27.83,75.22-50.27,137.89-67.42,188.02-17.15,50.2-31.82,91.9-44.08,125.12-12.27,33.21-22.04,60.45-29.42,81.8-7.38,21.27-13.46,40.71-18.35,58.23-3.29,17.6-2.09,29.54,3.69,35.74,5.69,6.35,17.45,10.1,35.51,11.33l132.35,11.25-29.42,60.22c-14.66,0-37.2-.31-67.42-.99-30.22-.61-64.13-1.22-101.73-1.84-37.6-.69-77.2-1.3-118.89-1.91-41.59-.61-80.49-.92-116.39-.92s-71.11.31-110.31.92c-39.2.61-76.8,1.22-112.7,1.91-36.01.61-69.92,1.22-101.73,1.84-31.92.69-57.65.99-77.2.99l29.32-62.06,88.27-7.58c35.91-3.75,60.04-8.42,72.31-14.08,12.27-5.66,24.93-19.74,38-42.32,13.07-26.32,36.8-80.2,71.11-161.69,34.31-81.5,77.6-191.84,129.86-331.04,26.13-68.95,48.67-128.79,67.42-179.6,18.75-50.73,34.71-94.05,47.77-129.78,13.07-35.66,23.34-65.12,30.72-88.38,7.28-23.19,13.46-41.63,18.35-55.48,4.89-18.75,3.29-30.99-4.89-36.65-8.18-5.66-27.83-9.72-58.84-12.24l-134.84-9.34,31.92-62.06ZM1391.84,1796.16c-13.07,0-27.83,1.91-44.08,5.66-16.36,3.75-27.83,12.55-34.41,26.32-4.89,10.02-11.37,24.18-19.55,42.32-8.18,18.21-18.85,44.23-31.92,78.05-13.07,33.82-29.82,76.83-50.17,128.79-20.45,52.04-45.38,117.54-74.8,196.59,13.07,2.53,24.54,3.75,34.31,3.75h31.92c63.73,0,116.39-12.24,158.08-36.65,41.69-24.49,75.5-54.56,101.73-90.3,26.13-35.74,44.48-73.39,55.15-112.87,10.57-39.49,15.86-74.23,15.86-104.38,0-23.8-3.69-45.38-10.97-64.89-7.38-19.36-17.65-34.13-30.62-44.15-13.17-8.8-26.23-15.69-39.3-20.66-13.07-5.05-29.42-7.58-48.97-7.58h-12.27Z"/>
  <path class="st0" d="M2989.92,2517.39c-24.54,48.66-55.15,97.9-91.86,147.69-36.8,49.94-80.09,95.63-129.96,137.37-49.87,41.73-106.22,75.4-169.15,100.87-62.93,25.46-131.95,38.2-207.05,38.2-116.09,0-205.96-42.86-269.69-128.59-63.73-85.73-95.55-212.06-95.55-378.99,0-78.8,6.88-160,20.85-243.32,13.86-83.47,34.31-165.23,61.24-245.16,27.03-79.93,61.34-155.9,102.93-227.76,41.69-71.72,90.26-135.53,145.92-191.12,60.44-60.27,122.88-103.13,187.51-128.74,64.53-25.46,128.66-38.2,192.39-38.2,111.11,0,193.99,35.37,248.74,106.1,54.76,70.73,82.18,165.09,82.18,283.22,0,41.73-5.39,78.94-15.96,111.34-10.67,32.54-23.74,61.4-39.2,86.86-15.56,25.61-33.11,46.97-52.76,64.37-19.55,17.4-38.4,30.7-56.35,40.04-27.83,18.53-63.33,36.5-106.62,53.9-43.29,17.26-87.87,33.53-133.55,48.66-45.78,15-89.16,27.73-129.96,38.2-40.89,10.47-72.71,16.83-95.55,19.1-3.29,27.87-7.38,64.37-12.27,109.5-4.89,45.27-7.38,90.96-7.38,137.37,0,85.73,11.37,156.46,34.31,212.06,22.84,55.6,62.14,83.47,117.69,83.47,62.04,0,126.57-33.1,193.59-99.03,67.02-66.07,124.17-174.43,171.65-325.09h39.2l14.66,187.73ZM2705.57,1477.89c-6.48,0-18.35,5.8-35.51,17.26-17.15,11.74-37.6,38.34-61.24,80.07-23.74,41.73-49.07,103.13-76,184.19-27.03,81.2-53.56,191.26-79.69,330.33,31.02-6.93,64.13-18.53,99.24-34.8,35.21-16.13,61.74-31.26,79.69-45.13,42.49-30.13,74.8-81.2,96.84-153.07,22.04-71.72,33.11-150.52,33.11-236.39,0-44-4.89-78.8-14.76-104.26-9.77-25.46-23.64-38.2-41.69-38.2Z"/>
  <path class="st0" d="M4117.45,1232.95c-32.71,114.63-60.84,228.64-84.58,342.02-23.64,113.39-42.89,209.66-57.55,288.68l-66.23,3.73c19.65-168.13,10.67-298.78-26.93-391.8-37.6-93.01-95.65-139.52-174.04-139.52-44.08,0-78.09,17.89-101.73,53.5-23.74,35.77-35.51,75.28-35.51,118.52,0,40.75,4.49,73.26,13.46,97.52,8.98,24.26,22.44,48.99,40.39,74.5,14.76,17.89,34.71,40.13,60.14,66.88,25.23,26.75,51.76,54.9,79.59,84.15,27.83,29.24,55.55,58.64,83.38,87.88,27.73,29.4,50.67,55.37,68.62,78.39,32.71,40.75,58.45,85.39,77.2,133.76,18.75,48.37,28.23,112.14,28.23,191.15,0,91.77-11.47,172.02-34.31,240.77-22.94,68.75-52.36,128.78-88.27,179.64-94.75,132.52-229.59,198.78-404.43,198.78-71.91,0-144.22-15.24-216.93-45.88-72.71-30.49-132.75-66.26-180.12-107.01,13.07-55.99,31.82-140.76,56.35-254.15,24.54-113.39,48.17-238.9,71.11-376.55l68.62-3.89c-3.29,23.02-5.78,54.28-7.38,93.79-1.7,39.51-2.49,80.88-2.49,124.12-3.29,124.9,18.85,228.79,66.23,311.54,47.38,82.9,114.4,124.27,200.97,124.27,52.26,0,91.56-16.49,117.69-49.77,26.13-32.97,39.2-72.64,39.2-118.36,0-25.51-2.49-48.37-7.38-68.9-4.89-20.38-17.15-43.24-36.7-68.75-13.17-15.24-29.42-33.75-49.07-55.53-19.55-21.62-41.29-45.73-64.93-72.48-23.74-26.91-48.27-53.66-73.51-80.41-25.43-26.75-48.67-52.73-69.92-78.23-37.6-43.39-69.02-95.65-94.35-156.78-25.33-61.13-38-138.89-38-233.15,0-196.29,46.58-352.91,139.73-470.19,42.49-55.99,89.46-95.5,140.93-118.52,51.46-22.86,107.42-34.37,167.86-34.37,63.73,0,118.89,15.24,165.46,45.88,46.58,30.64,78.09,61.13,94.45,91.77l68.62-145.27,66.13,38.26Z"/>
  <path class="st0" d="M4901.78,881.82c143.82,0,255.33,58.76,334.62,176.46,79.19,117.7,118.89,303.37,118.89,556.83,0,108.68-7.78,218.83-23.34,330.45-15.56,111.81-37.2,218.09-64.93,319.21-27.83,101.12-62.14,195.43-102.93,282.93-40.89,87.49-86.67,160.07-137.24,217.35-52.36,60.42-112,104.81-178.93,133.54-67.02,28.55-137.34,42.92-210.84,42.92-55.55,0-110.31-9.03-164.27-27.08-53.86-18.24-102.13-53.6-144.62-106.47-42.49-52.68-76.4-126.73-101.63-221.77-25.43-95.05-38-219.56-38-373.55,0-208.14,26.93-409.65,80.89-604.35,53.86-194.51,126.57-355.32,218.12-482.04,62.04-84.36,128.26-146.25,198.58-185.67,70.21-39.05,142.13-58.76,215.63-58.76ZM4911.65,1035.81c-21.34,0-43.78,11.97-67.42,36.1-23.74,24.31-49.47,75.52-77.2,153.99-27.83,75.34-54.86,169.65-80.89,282.93-26.23,113.1-49.47,231.54-69.92,355.32-20.45,123.78-36.8,244.43-48.97,362.13-12.27,117.7-18.45,218.83-18.45,303.37,0,96.52,8.18,165.22,24.54,205.93,16.36,40.71,38.4,61.15,66.23,61.15,44.08,0,86.57-55.81,127.46-167.62,26.03-66.31,53.06-159.15,80.89-278.32,27.73-119.18,52.26-244.43,73.51-375.76,21.24-131.33,38.8-259.53,52.66-384.79,13.86-125.25,20.85-230.06,20.85-314.61,0-24.13-.8-49.73-2.39-76.99-1.7-27.08-5.78-52.68-12.27-76.81-6.58-24.13-15.16-44.58-25.73-61.15-10.67-16.58-24.93-24.87-42.89-24.87Z"/>
  <path class="st0" d="M6798.87,2274.15c-53.86,222.39-124.17,389.23-210.74,500.52-86.67,111.3-179.83,166.84-279.46,166.84-50.67,0-89.86-16.05-117.59-47.93-27.83-32.09-46.58-77.56-56.45-136.6-9.77-58.84-11.47-130.63-4.89-214.77,6.48-84.35,18.75-177.13,36.8-278.14,14.66-84.14,30.62-177.74,47.77-280.61,17.15-102.86,34.71-204.69,52.66-305.91,17.95-101.01,34.71-195.44,50.27-283.07,15.56-87.64,28.23-160.05,38-217.45,8.18-47.11,10.57-89.28,7.38-126.31-3.29-37.03-13.96-55.75-31.92-55.75-32.71,0-67.42,36.41-104.13,108.83-36.8,72.41-73.21,161.7-109.11,267.85-35.91,106.15-69.02,219.92-99.24,341.29-30.22,121.38-54.36,231.03-72.31,328.74-22.94,107.8-45.78,224.85-68.62,351.37-22.94,126.31-47.47,285.54-73.61,477.69-71.91,3.29-142.13,10.08-210.74,20.16-68.62,10.08-127.46,20.37-176.53,30.45,27.83-158.41,56.85-330.39,87.07-515.75,30.22-185.36,57.95-365.77,83.38-541.05,25.23-175.07,47.38-335.33,66.13-480.16,18.75-145.03,31.42-256.12,38-333.68,3.29-40.53,3.29-68.3,0-83.52-3.29-15.22-10.67-22.63-22.04-22.63h-142.22l31.92-177.13c84.98-10.08,172.84-24.28,263.5-43,90.66-18.31,177.73-46.29,261.01-83.32-8.18,104.51-19.25,218.27-33.11,341.29-13.86,123.02-29.82,250.16-47.77,381.61,31.02-94.22,65.73-185.36,104.23-272.99,38.3-87.64,80.39-164.99,126.17-232.47,45.78-67.48,94.35-120.55,145.92-159.23,51.46-38.88,106.62-58.22,165.36-58.22,37.6,0,66.23,8.43,85.87,25.3,19.55,16.87,37.5,38.68,53.86,65.63,16.36,27.16,28.62,64.19,36.8,111.3,8.18,47.32,12.27,98.54,12.27,154.29s-2.89,112.94-8.58,171.78c-5.78,59.04-12.67,113.76-20.85,164.37-14.76,84.35-30.62,174.45-47.77,270.52-17.15,96.07-34.81,194.61-52.76,295.62-17.95,101.22-35.51,202.23-52.66,303.44-17.15,101.01-32.31,197.08-45.38,288.22-3.29,30.24-3.29,55.55,0,75.71,3.29,20.37,9.87,30.45,19.65,30.45,13.07,0,29.02-10.9,47.77-32.92,18.75-21.81,38.4-53.08,58.84-93.6,20.45-40.32,40.79-87.43,61.24-141.54,20.45-53.9,38.8-112.74,55.15-176.92l51.46,121.38Z"/>
  <path class="st0" d="M8213.04,2346.68c-16.36,63.28-37.9,130.24-64.63,201.07-27.13,70.82-59.44,135.02-96.94,192.24-37.5,57.21-80.99,104.67-130.06,142.38-49.07,37.71-104.52,56.47-166.76,56.47-43.88,0-78.59-12.88-104.13-38.45-25.13-25.57-43.09-59.42-53.86-101.73-10.57-42.13-15.16-90.32-13.36-144.59,1.6-54.27,6.58-110.01,14.56-167.4,1.6-11.96,4.19-33.11,7.58-63.28h-4.99c-21.34,60.34-46.58,121.41-76,183.22-29.42,61.81-63.33,117.55-101.73,167.22-38.4,49.67-81.78,90.51-129.96,122.15-48.17,31.64-102.53,47.46-162.97,47.46-78.39,0-135.64-47.46-171.55-142.57-36.01-94.92-53.96-217.62-53.96-368.28,0-126.75,9.38-254.78,28.23-384.29,18.75-129.69,44.88-254.05,78.39-373.07,33.51-119.02,73.11-229.76,118.89-332.23,45.68-102.46,96.45-189.84,152-262.32,55.55-75.24,109.81-127.3,162.97-156,53.06-28.51,105.02-42.86,155.69-42.86,66.82,0,115.5,18.95,145.82,56.47,30.32,37.71,52.66,79.1,67.42,124.36l21.94-122.15h357.86c-17.95,90.51-39.5,209.53-65.03,357.25-25.13,147.72-50.27,296.91-74.6,447.57-24.34,150.66-46.68,292.31-66.23,424.94-19.55,132.63-32.71,229.03-39.1,289.37-4.79,39.18-7.98,76.16-8.78,110.74-.8,34.77,7.18,52.06,23.54,52.06,25.93,0,57.45-34.03,94.15-101.73,36.7-67.88,71.41-158.94,104.13-273.54l51.46,99.52ZM7298.95,2409.96c0,51.14,3.99,97.13,12.27,137.78,8.08,40.65,22.84,61.07,44.08,61.07,34.31,0,73.91-39.92,118.89-119.76,44.88-79.84,93.55-219.28,145.82-418.32,11.37-39,25.33-92.53,41.69-160.41,16.36-67.88,31.52-139.44,45.48-214.68,13.56-75.42,25.93-148.45,36.7-219.28,10.37-70.82,15.96-128.95,15.96-174.02,0-69.35-7.98-124.36-23.54-165.01-15.56-40.84-36.3-61.07-62.24-61.07-42.69,0-85.77,46.73-130.06,140.18-35.91,72.3-68.62,158.94-98.04,259.93-29.42,100.99-55.15,206.4-77.2,316.41-22.04,110.01-39.2,218.54-51.46,325.6-12.27,106.88-18.35,204.19-18.35,291.57Z"/>
  <path class="st0" d="M9642.07,2434.74c-53.86,168.87-124.07,295.56-210.84,380.08-86.57,84.51-179.73,126.69-279.26,126.69-50.67,0-89.96-12.18-117.69-36.4-27.93-24.37-46.68-58.89-56.45-103.73-9.77-44.68-11.37-99.2-4.79-163.09,6.38-64.05,18.75-134.5,36.7-211.21,14.76-63.89,30.52-134.97,47.67-213.08,17.35-78.11,34.71-155.44,52.86-232.3,17.95-76.7,34.71-148.41,50.27-214.96,15.36-66.55,28.13-121.54,37.9-165.12,8.18-35.77,10.57-67.8,7.38-95.92-3.39-28.12-13.96-42.33-31.92-42.33-32.71,0-67.42,27.65-104.13,82.64-36.7,54.99-73.21,122.79-109.11,203.4-35.91,80.61-69.02,167-99.34,259.17-30.12,92.17-54.26,175.43-72.21,249.64-22.94,81.86-45.68,170.75-68.62,266.82-22.94,95.92-47.47,216.83-73.61,362.74-71.81,2.5-142.03,7.65-210.84,15.31-68.62,7.65-127.26,15.47-176.33,23.12,27.73-120.29,56.65-250.89,86.97-391.64,30.12-140.75,58.05-277.76,83.38-410.85,25.33-132.94,47.28-254.63,66.23-364.61,18.75-110.13,31.32-194.49,37.9-253.39,3.19-30.77,3.19-51.86,0-63.42-3.39-11.56-10.57-17.18-22.14-17.18h-142.03l31.72-134.5c84.98-7.65,172.94-18.43,263.5-32.65,90.76-13.9,177.73-35.15,261.11-63.27-8.18,79.36-19.15,165.75-33.11,259.17-13.96,93.42-29.72,189.96-47.67,289.78,30.92-71.55,65.63-140.75,104.13-207.3,38.3-66.55,80.39-125.29,126.27-176.53,45.68-51.24,94.35-91.54,145.82-120.91,51.46-29.53,106.52-44.21,165.36-44.21,37.7,0,66.23,6.4,85.77,19.21,19.75,12.81,37.7,29.37,54.06,49.83,16.16,20.62,28.52,48.74,36.7,84.51,8.18,35.93,12.17,74.83,12.17,117.16s-2.79,85.76-8.58,130.44c-5.59,44.83-12.57,86.39-20.75,124.82-14.76,64.05-30.72,132.47-47.87,205.43-17.15,72.95-34.71,147.78-52.66,224.48-17.95,76.86-35.51,153.56-52.66,230.42-17.15,76.7-32.31,149.66-45.28,218.86-3.39,22.96-3.39,42.18,0,57.49,3.19,15.47,9.77,23.12,19.55,23.12,12.97,0,28.92-8.28,47.87-24.99,18.75-16.56,38.3-40.3,58.65-71.08,20.55-30.62,40.89-66.39,61.44-107.48,20.35-40.93,38.7-85.61,55.05-134.35l51.46,92.17Z"/>
  <path class="st0" d="M10713.44,2513.86c-60.44,132.13-139.43,236.39-236.58,312.93-97.34,76.53-204.66,114.73-322.35,114.73-266.3,0-399.55-185.46-399.55-556.25,0-78.8,7.38-159.29,22.14-241.63,14.56-82.33,36.7-161.7,66.03-238.23,29.52-76.39,65.03-148.26,106.72-215.46,41.69-67.2,89.56-125.2,143.42-173.86,60.44-55.6,120.08-95.63,178.93-119.96,58.84-24.33,125.87-36.5,200.87-36.5,94.75,0,173.74,30.13,236.58,90.4,63.03,60.27,94.35,147.27,94.35,260.72,0,46.4-5.98,86.44-18.35,119.96-12.17,33.67-27.33,61.4-45.28,83.47-17.95,22.07-38.5,38.76-61.24,50.36-22.94,11.6-45.08,17.4-66.23,17.4-19.55,0-38.5-3.4-56.45-10.47-17.95-6.93-33.51-19.66-46.48-38.2-32.71-41.73-40.09-92.66-22.14-152.93,8.18-30.13,15.96-60.27,23.34-90.4,7.38-30.13,10.97-60.27,10.97-90.4,0-37.06-5.78-66.63-17.15-88.7-11.37-21.93-28.52-32.96-51.46-32.96-29.32,0-61.24,21.36-95.55,64.23-34.31,43.01-68.62,116.57-102.93,220.83-35.91,104.26-63.43,212.63-82.18,325.09-18.75,112.47-28.13,223.09-28.13,332.02s13.36,194.66,40.49,250.26c26.93,55.6,64.83,83.47,113.9,83.47,75.2,0,141.83-33.53,199.87-100.87,57.85-67.2,110.51-177.26,157.98-330.19h41.69l14.76,191.12Z"/>
  <path class="st0" d="M11843.26,2644.16c-24.54,34.12-55.05,68.64-91.96,103.55-36.7,35.01-79.99,67.05-129.86,96.31-49.87,29.26-106.32,52.87-169.15,70.72-62.83,17.85-131.85,26.78-207.05,26.78-116.09,0-205.86-30.05-269.69-90.16-63.63-60.11-95.55-148.68-95.55-265.72,0-55.25,6.98-112.18,20.75-170.6,13.96-58.52,34.31-115.85,61.44-171.89,26.93-56.04,61.24-109.3,102.93-159.69,41.69-50.29,90.16-95.02,145.82-134,60.44-42.25,122.88-72.31,187.51-90.26,64.43-17.85,128.66-26.78,192.29-26.78,111.11,0,194.09,24.8,248.94,74.39,54.66,49.59,81.98,115.75,81.98,198.57,0,29.26-5.19,55.34-15.96,78.06-10.57,22.81-23.54,43.05-39.1,60.9-15.56,17.95-33.11,32.93-52.66,45.13-19.75,12.2-38.5,21.52-56.45,28.07-27.73,12.99-63.43,25.59-106.52,37.79-43.49,12.1-87.97,23.51-133.65,34.12-45.88,10.51-89.16,19.44-129.86,26.78-40.89,7.34-72.81,11.8-95.75,13.39-3.19,19.54-7.38,45.13-12.17,76.77-4.99,31.74-7.38,63.78-7.38,96.31,0,60.11,11.37,109.7,34.31,148.68,22.94,38.98,62.04,58.52,117.69,58.52,62.04,0,126.67-23.21,193.69-69.43,66.82-46.32,124.07-122.29,171.55-227.93h39.1l14.76,131.62ZM11559.01,1915.35c-6.58,0-18.35,4.07-35.51,12.1-17.15,8.23-37.7,26.88-61.44,56.14-23.74,29.26-48.87,72.31-76,129.14-26.93,56.93-53.46,134.1-79.59,231.6,31.12-4.86,64.03-12.99,99.34-24.4,35.11-11.31,61.64-21.92,79.59-31.64,42.49-21.13,74.8-56.93,96.74-107.32,22.14-50.29,33.11-105.53,33.11-165.74,0-30.85-4.79-55.25-14.56-73.1-9.97-17.85-23.74-26.78-41.69-26.78Z"/>
</svg>