<?xml version="1.0" encoding="UTF-8"?>
<svg xmlns="http://www.w3.org/2000/svg" viewBox="0 0 972 972">
  <defs>
    <style>
      .cls-1, .cls-2 {
        fill: none;
      }

      .cls-1, .cls-2, .cls-3 {
        stroke: #efeeee;
        stroke-miterlimit: 10;
      }

      .cls-1, .cls-3 {
        stroke-width: 3.62px;
      }

      .cls-2 {
        stroke-width: 3.83px;
      }

      .cls-4 {
        font-family: BasicSans-Black, 'Basic Sans';
        font-size: 91.76px;
        font-weight: 800;
      }

      .cls-4, .cls-3 {
        fill: #6d8b52;
      }

      .cls-5 {
        letter-spacing: .1em;
      }

      .cls-6 {
        letter-spacing: .08em;
      }

      .cls-7 {
        letter-spacing: .04em;
      }
    </style>
  </defs>
  <g id="Layer_1" data-name="Layer 1">
    <text class="cls-4" transform="translate(37.66 494.42)"><tspan class="cls-5" x="0" y="0">M</tspan><tspan class="cls-7" x="88.82" y="0">A</tspan><tspan class="cls-6" x="150.57" y="0">T</tspan><tspan class="cls-5" x="212.05" y="0">CH</tspan><tspan class="cls-6" x="356.19" y="0">A</tspan><tspan class="cls-5" x="422.07" y="0" xml:space="preserve">        MUSE</tspan></text>
  </g>
  <g id="Layer_2" data-name="Layer 2">
    <path class="cls-3" d="M558.15,381.52s-83.55,67.6,0,155.89c0,0,86.25-72.93,0-155.89Z"/>
    <path class="cls-3" d="M485.44,437.52s-8.66,95.22,73.1,98.1c0,0,10.58-80.79-73.1-98.1Z"/>
    <line class="cls-1" x1="485.44" y1="437.52" x2="558.53" y2="535.63"/>
    <polyline class="cls-1" points="489.32 478.71 527.83 494.42 543.73 473.69"/>
    <line class="cls-2" x1="557.99" y1="381.52" x2="557.99" y2="556.16"/>
    <polyline class="cls-1" points="527.04 426.08 558.26 459.47 590.03 426.08"/>
    <path class="cls-3" d="M632.06,437.52s8.66,95.22-73.1,98.1c0,0-10.58-80.79,73.1-98.1Z"/>
    <line class="cls-1" x1="632.06" y1="437.52" x2="558.97" y2="535.63"/>
    <polyline class="cls-1" points="628.18 478.71 589.67 494.42 573.77 473.69"/>
  </g>
</svg>